<?xml version="1.0" encoding="UTF-8"?>
<!DOCTYPE svg PUBLIC "-//W3C//DTD SVG 1.1//EN" "http://www.w3.org/Graphics/SVG/1.1/DTD/svg11.dtd">
<svg xmlns="http://www.w3.org/2000/svg" version="1.1" width="500px" height="500px" style="shape-rendering:geometricPrecision; text-rendering:geometricPrecision; image-rendering:optimizeQuality; fill-rule:evenodd; clip-rule:evenodd" xmlns:xlink="http://www.w3.org/1999/xlink">
<g><path style="opacity:0.997" fill="#326363" d="M 225.5,-0.5 C 241.5,-0.5 257.5,-0.5 273.5,-0.5C 353.147,9.51811 413.147,48.8514 453.5,117.5C 479.583,165.853 488.083,217.519 479,272.5C 474.638,293.625 467.971,313.958 459,333.5C 457.786,335.049 456.286,336.215 454.5,337C 434.836,337.5 415.169,337.667 395.5,337.5C 395.667,364.502 395.5,391.502 395,418.5C 392.014,434.151 382.847,443.984 367.5,448C 360.508,448.5 353.508,448.666 346.5,448.5C 341.293,464.895 335.793,481.229 330,497.5C 329.005,498.066 328.172,498.733 327.5,499.5C 275.5,499.5 223.5,499.5 171.5,499.5C 164.209,482.974 157.876,465.974 152.5,448.5C 123.813,452.703 107.48,440.703 103.5,412.5C 103.566,387.435 103.9,362.602 104.5,338C 84.8333,337.667 65.1667,337.333 45.5,337C 44.5,336.667 43.5,336.333 42.5,336C 30.589,313.529 22.7557,289.695 19,264.5C 10.696,194.305 28.696,132.305 73,78.5C 113.907,33.113 164.74,6.77972 225.5,-0.5 Z M 165.5,32.5 C 184.112,50.2792 202.279,68.6125 220,87.5C 228.197,96.0309 236.697,104.198 245.5,112C 249.295,112.837 252.961,112.504 256.5,111C 261.667,105.167 266.833,99.3333 272,93.5C 292.292,73.2085 312.625,52.8751 333,32.5C 392.731,59.2786 433.231,103.612 454.5,165.5C 453.129,168.385 451.129,170.885 448.5,173C 429.5,188 410.5,203 391.5,218C 387.587,222.969 387.587,227.969 391.5,233C 414.151,249.998 436.151,267.665 457.5,286C 453.801,297.598 449.801,309.098 445.5,320.5C 428.833,320.5 412.167,320.5 395.5,320.5C 395.969,297.434 395.469,274.434 394,251.5C 392.417,249.945 390.584,248.778 388.5,248C 378.839,247.5 369.172,247.334 359.5,247.5C 351.653,195.213 322.32,162.38 271.5,149C 223.782,142.227 185.782,158.06 157.5,196.5C 147.986,212.226 142.319,229.226 140.5,247.5C 130.494,247.334 120.494,247.5 110.5,248C 106.751,249.802 104.417,252.802 103.5,257C 103.928,278.139 103.928,299.306 103.5,320.5C 86.8333,320.5 70.1667,320.5 53.5,320.5C 49.2038,309.112 45.2038,297.612 41.5,286C 63.8561,267.628 86.5228,249.462 109.5,231.5C 113.082,225.086 111.749,219.919 105.5,216C 84.8333,199.667 64.1667,183.333 43.5,167C 65.5375,105.135 106.204,60.3021 165.5,32.5 Z M 237.5,165.5 C 281.681,162.47 313.847,180.47 334,219.5C 349.328,260.454 341.495,295.954 310.5,326C 280.898,349.456 248.231,354.456 212.5,341C 172.204,319.743 154.204,286.409 158.5,241C 164.319,214.667 178.319,194.001 200.5,179C 212.231,172.372 224.565,167.872 237.5,165.5 Z M 121.5,265.5 C 124.833,265.5 128.167,265.5 131.5,265.5C 131.333,310.501 131.5,355.501 132,400.5C 135.592,412.828 143.759,419.994 156.5,422C 218.5,422.667 280.5,422.667 342.5,422C 355.395,420.099 363.561,412.933 367,400.5C 367.5,355.501 367.667,310.501 367.5,265.5C 371.167,265.5 374.833,265.5 378.5,265.5C 378.833,315.504 378.5,365.504 377.5,415.5C 375.904,422.932 371.571,428.099 364.5,431C 355.5,431.333 346.5,431.667 337.5,432C 335.342,433.457 333.509,435.29 332,437.5C 327.234,453.277 321.567,468.61 315,483.5C 270.885,483.018 226.718,482.684 182.5,482.5C 177.923,466.034 172.257,450.034 165.5,434.5C 164.335,433.416 163.002,432.583 161.5,432C 152.833,431.667 144.167,431.333 135.5,431C 130.136,428.973 125.969,425.473 123,420.5C 121.518,368.88 121.018,317.213 121.5,265.5 Z M 148.5,298.5 C 164.258,334.742 191.591,356.909 230.5,365C 272.185,370.22 307.019,357.387 335,326.5C 340.624,318.562 345.624,310.229 350,301.5C 350.667,333.167 350.667,364.833 350,396.5C 347.908,400.425 344.741,403.091 340.5,404.5C 322.846,405.5 305.179,405.833 287.5,405.5C 288.29,396.343 285.956,388.176 280.5,381C 277.759,378.296 274.425,376.629 270.5,376C 256.833,375.333 243.167,375.333 229.5,376C 219.479,378.69 213.646,385.19 212,395.5C 211.502,398.817 211.335,402.15 211.5,405.5C 193.821,405.833 176.154,405.5 158.5,404.5C 153.681,402.847 150.348,399.68 148.5,395C 148.515,363.041 148.515,330.875 148.5,298.5 Z"/></g>
<g><path style="opacity:1" fill="#97ca66" d="M 231.5,14.5 C 255.489,13.5461 279.156,15.7128 302.5,21C 307.022,22.066 311.355,23.566 315.5,25.5C 293.808,48.5241 271.808,71.1908 249.5,93.5C 227.082,71.0842 205.082,48.4175 183.5,25.5C 186.003,24.0357 188.67,22.869 191.5,22C 204.856,18.8186 218.189,16.3186 231.5,14.5 Z"/></g>
<g><path style="opacity:0.997" fill="#336464" d="M 237.5,172.5 C 282.067,169.622 312.9,188.622 330,229.5C 340.985,272.777 328.152,306.444 291.5,330.5C 253.588,348.683 219.254,343.683 188.5,315.5C 164.775,287.973 159.275,256.973 172,222.5C 185.961,195.355 207.795,178.688 237.5,172.5 Z"/></g>
<g><path style="opacity:1" fill="#97ca66" d="M 37.5,184.5 C 38.9217,184.709 40.255,185.209 41.5,186C 57.7237,198.938 73.7237,212.105 89.5,225.5C 72.4806,239.849 55.1473,253.849 37.5,267.5C 36.8076,266.975 36.3076,266.308 36,265.5C 32.3518,238.427 32.8518,211.427 37.5,184.5 Z"/></g>
<g><path style="opacity:1" fill="#97c967" d="M 459.5,184.5 C 460.586,184.62 461.253,185.287 461.5,186.5C 465.119,204.662 466.619,222.996 466,241.5C 464.704,250.127 463.871,258.793 463.5,267.5C 462.448,267.649 461.448,267.483 460.5,267C 443.33,253.326 426.33,239.493 409.5,225.5C 426.186,211.81 442.852,198.143 459.5,184.5 Z"/></g>
<g><path style="opacity:1" fill="#98cb66" d="M 240.5,188.5 C 278.292,187.167 303.459,204.167 316,239.5C 321.605,269.7 312.439,294.2 288.5,313C 259.786,329.617 232.12,328.284 205.5,309C 182.771,287.385 176.271,261.551 186,231.5C 196.852,207.683 215.019,193.35 240.5,188.5 Z"/></g>
<g><path style="opacity:1" fill="#97ca66" d="M 231.5,391.5 C 243.171,391.333 254.838,391.5 266.5,392C 267.931,392.465 269.097,393.299 270,394.5C 270.499,398.152 270.665,401.818 270.5,405.5C 256.5,405.5 242.5,405.5 228.5,405.5C 227.803,400.36 228.803,395.693 231.5,391.5 Z"/></g>
</svg>
